<svg width="19" height="16" viewBox="0 0 19 16" fill="none" xmlns="http://www.w3.org/2000/svg">
<path d="M7.49166 1.82503C7.68525 1.63029 7.92396 1.4864 8.18656 1.40614C8.44916 1.32589 8.72752 1.31176 8.9969 1.36502C9.26627 1.41827 9.51832 1.53726 9.73063 1.7114C9.94294 1.88554 10.1089 2.10943 10.2139 2.36319C10.3188 2.61694 10.3594 2.89269 10.3321 3.16591C10.3047 3.43914 10.2103 3.70138 10.0572 3.92933C9.90411 4.15727 9.69706 4.34386 9.45446 4.4725C9.21187 4.60114 8.94125 4.66785 8.66666 4.66669H1.16666M9.99166 14.175C10.1853 14.3698 10.424 14.5137 10.6866 14.5939C10.9492 14.6742 11.2275 14.6883 11.4969 14.635C11.7663 14.5818 12.0183 14.4628 12.2306 14.2887C12.4429 14.1145 12.6089 13.8906 12.7139 13.6369C12.8188 13.3831 12.8594 13.1074 12.8321 12.8341C12.8047 12.5609 12.7103 12.2987 12.5572 12.0707C12.4041 11.8428 12.1971 11.6562 11.9545 11.5276C11.7119 11.3989 11.4413 11.3322 11.1667 11.3334H1.16666M14.275 4.44169C14.5174 4.19993 14.8156 4.02162 15.1433 3.92254C15.471 3.82345 15.818 3.80664 16.1537 3.8736C16.4895 3.94055 16.8035 4.08921 17.0681 4.30642C17.3327 4.52363 17.5397 4.80269 17.6708 5.11894C17.8019 5.43518 17.853 5.77886 17.8197 6.11957C17.7864 6.46028 17.6696 6.78752 17.4797 7.07236C17.2898 7.3572 17.0326 7.59085 16.7309 7.75265C16.4292 7.91445 16.0923 7.99942 15.75 8.00003H1.16666" stroke="white" stroke-width="2" stroke-linecap="round" stroke-linejoin="round"/>
</svg>
